# xmcd
#
# Track frame offsets:
#	150
#	13354
#	29843
#	44722
#	63589
#	83473
#	98564
#
# Disc length: 1606 seconds
#
# Revision: 1
# Processed by: cddbd v1.5.2PL0 Copyright (c) Steve Scherf et al.
# Submitted via: audiograbber 1.83.01
#
DISCID=5a064407
DTITLE=Parker and Cropper - A Little Out Of Place
DYEAR=1900
DGENRE=Country
TTITLE0=Unlock The Door
TTITLE1=Same Old Song And Dance
TTITLE2=Do You Ever Cry Too
TTITLE3=A Little Out Of Place
TTITLE4=Dance Billy Dance
TTITLE5=Sun Set In The North
TTITLE6=More Than Meets The Eye
EXTD=
EXTT0=
EXTT1=
EXTT2=
EXTT3=
EXTT4=
EXTT5=
EXTT6=
PLAYORDER=
